<svg width="620" height="900" viewBox="0 0 620 900" fill="none" xmlns="http://www.w3.org/2000/svg">
<path d="M69.2292 25.3825C69.0781 24.1744 68.9573 24.0536 67.7183 23.8723C68.927 23.7212 69.0479 23.6004 69.2292 22.3621C69.3803 23.5703 69.5012 23.691 70.7402 23.8723C69.5314 24.0232 69.4105 24.1744 69.2292 25.3825Z" fill="white" fill-opacity="0.1"/>
<path d="M12.2495 88.5826C12.2495 89.1999 11.7491 89.7004 11.1315 89.7004C10.5141 89.7004 10.0134 89.1999 10.0134 88.5826C10.0134 87.9655 10.5141 87.465 11.1315 87.465C11.7491 87.465 12.2495 87.9655 12.2495 88.5826Z" fill="white" fill-opacity="0.1"/>
<path d="M27.7236 28.2872C27.7236 28.9042 27.2231 29.4047 26.6055 29.4047C25.988 29.4047 25.4875 28.9042 25.4875 28.2872C25.4875 27.6698 25.988 27.1696 26.6055 27.1696C27.2231 27.1696 27.7236 27.6698 27.7236 28.2872Z" fill="white" fill-opacity="0.1"/>
<path d="M397.223 291.39C397.374 292.598 397.495 292.719 398.734 292.9C397.525 293.051 397.405 293.172 397.223 294.41C397.072 293.202 396.951 293.082 395.712 292.9C396.921 292.749 397.042 292.598 397.223 291.39Z" fill="white" fill-opacity="0.1"/>
<path d="M480.821 47.6045C480.972 48.8127 481.093 48.9335 482.332 49.1148C481.123 49.2659 481.003 49.3867 480.821 50.625C480.67 49.4168 480.549 49.296 479.31 49.1148C480.519 48.9639 480.64 48.8127 480.821 47.6045Z" fill="white" fill-opacity="0.1"/>
<path d="M467.505 214.08C467.656 215.289 467.777 215.409 469.016 215.591C467.807 215.742 467.686 215.862 467.505 217.101C467.354 215.893 467.233 215.772 465.994 215.591C467.203 215.44 467.323 215.289 467.505 214.08Z" fill="white" fill-opacity="0.1"/>
<path d="M382.057 109.028C382.208 110.236 382.329 110.357 383.568 110.538C382.359 110.689 382.238 110.81 382.057 112.048C381.906 110.84 381.785 110.719 380.546 110.538C381.755 110.387 381.876 110.236 382.057 109.028Z" fill="white" fill-opacity="0.1"/>
<path d="M506.05 293.293C506.05 292.676 506.551 292.175 507.168 292.175C507.786 292.175 508.286 292.676 508.286 293.293C508.286 293.91 507.786 294.41 507.168 294.41C506.551 294.41 506.05 293.91 506.05 293.293Z" fill="white" fill-opacity="0.1"/>
<path d="M290.336 199.708C290.336 199.09 290.836 198.59 291.454 198.59C292.071 198.59 292.572 199.09 292.572 199.708C292.572 200.325 292.071 200.825 291.454 200.825C290.836 200.825 290.336 200.325 290.336 199.708Z" fill="white" fill-opacity="0.1"/>
<path d="M444.391 149.191C444.391 148.574 444.892 148.073 445.509 148.073C446.127 148.073 446.627 148.574 446.627 149.191C446.627 149.808 446.127 150.308 445.509 150.308C444.892 150.308 444.391 149.808 444.391 149.191Z" fill="white" fill-opacity="0.1"/>
<path d="M439.037 45.8279C439.037 45.2106 439.537 44.7101 440.155 44.7101C440.772 44.7101 441.273 45.2106 441.273 45.8279C441.273 46.445 440.772 46.9455 440.155 46.9455C439.537 46.9455 439.037 46.445 439.037 45.8279Z" fill="white" fill-opacity="0.1"/>
<path d="M423.563 106.123C423.563 105.506 424.063 105.006 424.681 105.006C425.298 105.006 425.799 105.506 425.799 106.123C425.799 106.741 425.298 107.241 424.681 107.241C424.063 107.241 423.563 106.741 423.563 106.123Z" fill="white" fill-opacity="0.1"/>
<path d="M216.899 281.346C217.906 280.9 219.084 281.355 219.53 282.362C219.976 283.369 219.521 284.546 218.513 284.992C217.506 285.437 216.328 284.983 215.882 283.976C215.436 282.969 215.892 281.792 216.899 281.346Z" fill="white" fill-opacity="0.15"/>
<path d="M371.071 264.674C371.071 263.573 371.964 262.681 373.066 262.681C374.167 262.681 375.06 263.573 375.06 264.674C375.06 265.775 374.167 266.668 373.066 266.668C371.964 266.668 371.071 265.775 371.071 264.674Z" fill="white" fill-opacity="0.15"/>
<path d="M222.955 216.287C223.734 215.509 224.996 215.509 225.775 216.287C226.554 217.066 226.554 218.328 225.775 219.106C224.996 219.885 223.734 219.885 222.955 219.106C222.176 218.328 222.176 217.066 222.955 216.287Z" fill="white" fill-opacity="0.15"/>
<path d="M248.167 265.55C248.167 264.933 248.667 264.433 249.285 264.433C249.903 264.433 250.403 264.933 250.403 265.55C250.403 266.168 249.903 266.668 249.285 266.668C248.667 266.668 248.167 266.168 248.167 265.55Z" fill="white" fill-opacity="0.15"/>
<path d="M341.382 149.031C341.382 148.414 341.883 147.913 342.501 147.913C343.118 147.913 343.619 148.414 343.619 149.031C343.619 149.648 343.118 150.148 342.501 150.148C341.883 150.148 341.382 149.648 341.382 149.031Z" fill="white" fill-opacity="0.15"/>
<path d="M403.881 223.328C404.032 224.536 404.153 224.657 405.392 224.838C404.184 224.989 404.063 225.11 403.881 226.348C403.73 225.14 403.609 225.019 402.37 224.838C403.579 224.687 403.7 224.536 403.881 223.328Z" fill="white" fill-opacity="0.1"/>
<path d="M298.521 271.417C298.672 272.625 298.793 272.746 300.032 272.927C298.823 273.078 298.702 273.199 298.521 274.437C298.37 273.229 298.249 273.108 297.01 272.927C298.219 272.776 298.34 272.625 298.521 271.417Z" fill="white" fill-opacity="0.1"/>
<path d="M375.091 145.28C375.242 146.488 375.363 146.609 376.602 146.79C375.393 146.941 375.272 147.062 375.091 148.3C374.94 147.092 374.819 146.971 373.58 146.79C374.789 146.639 374.91 146.488 375.091 145.28Z" fill="white" fill-opacity="0.1"/>
<path d="M442.783 260.319C442.934 261.528 443.055 261.648 444.294 261.83C443.085 261.981 442.964 262.102 442.783 263.34C442.632 262.132 442.511 262.011 441.272 261.83C442.481 261.679 442.602 261.528 442.783 260.319Z" fill="white" fill-opacity="0.1"/>
<path d="M534.659 494.202C534.809 492.994 534.93 492.873 536.169 492.692C534.961 492.54 534.84 492.42 534.659 491.181C534.507 492.39 534.386 492.51 533.148 492.692C534.356 492.843 534.477 492.994 534.659 494.202Z" fill="white" fill-opacity="0.1"/>
<path d="M618.302 636.362C618.453 635.154 618.574 635.033 619.813 634.852C618.604 634.7 618.484 634.58 618.302 633.341C618.151 634.55 618.03 634.67 616.791 634.852C618 635.003 618.121 635.154 618.302 636.362Z" fill="white" fill-opacity="0.1"/>
<path d="M522.063 628.025C522.214 626.816 522.335 626.696 523.574 626.514C522.365 626.363 522.244 626.243 522.063 625.004C521.912 626.212 521.791 626.333 520.552 626.514C521.76 626.665 521.881 626.816 522.063 628.025Z" fill="white" fill-opacity="0.1"/>
<path d="M357.231 536.139C357.382 534.931 357.503 534.81 358.742 534.629C357.533 534.478 357.412 534.357 357.231 533.119C357.08 534.327 356.959 534.448 355.72 534.629C356.929 534.78 357.05 534.931 357.231 536.139Z" fill="white" fill-opacity="0.1"/>
<path d="M445.944 440.196C446.095 438.988 446.216 438.867 447.455 438.686C446.246 438.534 446.125 438.414 445.944 437.175C445.793 438.383 445.672 438.504 444.433 438.686C445.641 438.836 445.762 438.988 445.944 440.196Z" fill="white" fill-opacity="0.1"/>
<path d="M465.152 486.203C465.152 486.82 465.653 487.32 466.27 487.32C466.888 487.32 467.388 486.82 467.388 486.203C467.388 485.585 466.888 485.085 466.27 485.085C465.653 485.085 465.152 485.585 465.152 486.203Z" fill="white" fill-opacity="0.1"/>
<path d="M299.061 594.068C299.061 594.685 299.561 595.185 300.179 595.185C300.796 595.185 301.297 594.685 301.297 594.068C301.297 593.45 300.796 592.95 300.179 592.95C299.561 592.95 299.061 593.45 299.061 594.068Z" fill="white" fill-opacity="0.1"/>
<path d="M555.773 518.607C555.773 519.224 556.274 519.725 556.892 519.725C557.509 519.725 558.01 519.224 558.01 518.607C558.01 517.99 557.509 517.49 556.892 517.49C556.274 517.49 555.773 517.99 555.773 518.607Z" fill="white" fill-opacity="0.1"/>
<path d="M344.594 436.118C344.594 436.735 345.095 437.235 345.713 437.235C346.33 437.235 346.831 436.735 346.831 436.118C346.831 435.5 346.33 435 345.713 435C345.095 435 344.594 435.5 344.594 436.118Z" fill="white" fill-opacity="0.1"/>
<path d="M582.406 561.886C582.406 562.503 582.907 563.003 583.525 563.003C584.142 563.003 584.643 562.503 584.643 561.886C584.643 561.269 584.142 560.768 583.525 560.768C582.907 560.768 582.406 561.269 582.406 561.886Z" fill="white" fill-opacity="0.1"/>
<path d="M547.618 651.133C547.618 651.751 548.118 652.251 548.736 652.251C549.353 652.251 549.854 651.751 549.854 651.133C549.854 650.516 549.353 650.016 548.736 650.016C548.118 650.016 547.618 650.516 547.618 651.133Z" fill="white" fill-opacity="0.1"/>
<path d="M527.599 542.651C527.599 543.268 528.099 543.769 528.717 543.769C529.335 543.769 529.835 543.268 529.835 542.651C529.835 542.034 529.335 541.534 528.717 541.534C528.099 541.534 527.599 542.034 527.599 542.651Z" fill="white" fill-opacity="0.1"/>
<path d="M543.275 586.136C544.282 586.582 545.46 586.127 545.906 585.12C546.352 584.114 545.897 582.936 544.889 582.49C543.882 582.045 542.704 582.5 542.258 583.506C541.812 584.513 542.268 585.69 543.275 586.136Z" fill="white" fill-opacity="0.15"/>
<path d="M396.571 580.59C396.571 581.691 397.464 582.584 398.565 582.584C399.667 582.584 400.56 581.691 400.56 580.59C400.56 579.489 399.667 578.597 398.565 578.597C397.464 578.597 396.571 579.489 396.571 580.59Z" fill="white" fill-opacity="0.15"/>
<path d="M462.71 547.624C463.489 548.402 464.752 548.402 465.531 547.624C466.31 546.845 466.31 545.583 465.531 544.805C464.752 544.026 463.489 544.026 462.71 544.805C461.931 545.583 461.931 546.845 462.71 547.624Z" fill="white" fill-opacity="0.15"/>
<path d="M534.627 444.997C534.627 445.614 535.128 446.114 535.745 446.114C536.363 446.114 536.863 445.614 536.863 444.997C536.863 444.38 536.363 443.879 535.745 443.879C535.128 443.879 534.627 444.38 534.627 444.997Z" fill="white" fill-opacity="0.15"/>
<path d="M412.251 476.068C412.251 476.685 412.752 477.186 413.369 477.186C413.987 477.186 414.487 476.685 414.487 476.068C414.487 475.451 413.987 474.951 413.369 474.951C412.752 474.951 412.251 475.451 412.251 476.068Z" fill="white" fill-opacity="0.15"/>
<path d="M400.673 650.061C400.825 648.852 400.945 648.732 402.184 648.55C400.976 648.399 400.855 648.278 400.673 647.04C400.522 648.248 400.402 648.369 399.163 648.55C400.371 648.701 400.492 648.852 400.673 650.061Z" fill="white" fill-opacity="0.1"/>
<path d="M313.149 507.148C313.3 505.94 313.42 505.819 314.659 505.638C313.451 505.487 313.33 505.366 313.149 504.128C312.997 505.336 312.877 505.456 311.638 505.638C312.846 505.789 312.967 505.94 313.149 507.148Z" fill="white" fill-opacity="0.1"/>
<path d="M257.51 559.768C257.661 558.56 257.782 558.439 259.021 558.258C257.812 558.107 257.692 557.986 257.51 556.747C257.359 557.956 257.238 558.076 255.999 558.258C257.208 558.409 257.329 558.56 257.51 559.768Z" fill="white" fill-opacity="0.1"/>
<path d="M259.657 814.117C259.808 815.325 259.929 815.446 261.167 815.627C259.959 815.778 259.838 815.899 259.657 817.137C259.505 815.929 259.384 815.808 258.146 815.627C259.354 815.476 259.475 815.325 259.657 814.117Z" fill="white" fill-opacity="0.1"/>
<path d="M343.3 671.957C343.451 673.165 343.572 673.286 344.811 673.467C343.603 673.618 343.482 673.739 343.3 674.977C343.149 673.769 343.028 673.648 341.789 673.467C342.998 673.316 343.119 673.165 343.3 671.957Z" fill="white" fill-opacity="0.1"/>
<path d="M247.061 680.294C247.212 681.502 247.333 681.623 248.572 681.804C247.363 681.956 247.242 682.076 247.061 683.315C246.91 682.106 246.789 681.986 245.55 681.804C246.759 681.654 246.879 681.502 247.061 680.294Z" fill="white" fill-opacity="0.1"/>
<path d="M47.7641 614C47.9152 615.208 48.036 615.329 49.275 615.51C48.0663 615.661 47.9454 615.782 47.7641 617.02C47.613 615.812 47.4921 615.691 46.2531 615.51C47.4619 615.359 47.5827 615.208 47.7641 614Z" fill="white" fill-opacity="0.1"/>
<path d="M170.942 868.123C171.093 869.331 171.214 869.452 172.453 869.633C171.244 869.784 171.123 869.905 170.942 871.144C170.791 869.935 170.67 869.815 169.431 869.633C170.64 869.482 170.76 869.331 170.942 868.123Z" fill="white" fill-opacity="0.1"/>
<path d="M190.15 822.116C190.15 821.499 190.651 820.999 191.269 820.999C191.886 820.999 192.387 821.499 192.387 822.116C192.387 822.733 191.886 823.234 191.269 823.234C190.651 823.234 190.15 822.733 190.15 822.116Z" fill="white" fill-opacity="0.1"/>
<path d="M24.059 714.251C24.059 713.634 24.5594 713.134 25.177 713.134C25.7946 713.134 26.2951 713.634 26.2951 714.251C26.2951 714.869 25.7946 715.369 25.177 715.369C24.5594 715.369 24.059 714.869 24.059 714.251Z" fill="white" fill-opacity="0.1"/>
<path d="M280.772 789.712C280.772 789.095 281.272 788.594 281.89 788.594C282.507 788.594 283.008 789.095 283.008 789.712C283.008 790.329 282.507 790.829 281.89 790.829C281.272 790.829 280.772 790.329 280.772 789.712Z" fill="white" fill-opacity="0.1"/>
<path d="M69.5925 872.201C69.5925 871.584 70.0933 871.084 70.7109 871.084C71.3282 871.084 71.8289 871.584 71.8289 872.201C71.8289 872.819 71.3282 873.319 70.7109 873.319C70.0933 873.319 69.5925 872.819 69.5925 872.201Z" fill="white" fill-opacity="0.1"/>
<path d="M307.405 746.433C307.405 745.816 307.905 745.315 308.523 745.315C309.14 745.315 309.641 745.816 309.641 746.433C309.641 747.05 309.14 747.55 308.523 747.55C307.905 747.55 307.405 747.05 307.405 746.433Z" fill="white" fill-opacity="0.1"/>
<path d="M272.616 657.185C272.616 656.568 273.116 656.068 273.734 656.068C274.351 656.068 274.852 656.568 274.852 657.185C274.852 657.803 274.351 658.303 273.734 658.303C273.116 658.303 272.616 657.803 272.616 657.185Z" fill="white" fill-opacity="0.1"/>
<path d="M252.597 765.668C252.597 765.05 253.098 764.55 253.715 764.55C254.333 764.55 254.833 765.05 254.833 765.668C254.833 766.285 254.333 766.785 253.715 766.785C253.098 766.785 252.597 766.285 252.597 765.668Z" fill="white" fill-opacity="0.1"/>
<path d="M268.273 722.183C269.28 721.737 270.458 722.192 270.904 723.199C271.35 724.205 270.895 725.383 269.887 725.828C268.88 726.274 267.702 725.819 267.256 724.812C266.81 723.806 267.266 722.629 268.273 722.183Z" fill="white" fill-opacity="0.15"/>
<path d="M121.569 727.728C121.569 726.627 122.462 725.735 123.563 725.735C124.665 725.735 125.558 726.627 125.558 727.728C125.558 728.829 124.665 729.722 123.563 729.722C122.462 729.722 121.569 728.829 121.569 727.728Z" fill="white" fill-opacity="0.15"/>
<path d="M187.708 760.695C188.487 759.917 189.75 759.917 190.529 760.695C191.308 761.474 191.308 762.736 190.529 763.514C189.75 764.293 188.487 764.293 187.708 763.514C186.93 762.736 186.93 761.474 187.708 760.695Z" fill="white" fill-opacity="0.15"/>
<path d="M259.625 863.322C259.625 862.705 260.126 862.204 260.743 862.204C261.361 862.204 261.861 862.705 261.861 863.322C261.861 863.939 261.361 864.439 260.743 864.439C260.126 864.439 259.625 863.939 259.625 863.322Z" fill="white" fill-opacity="0.15"/>
<path d="M137.249 832.251C137.249 831.634 137.75 831.133 138.367 831.133C138.985 831.133 139.485 831.634 139.485 832.251C139.485 832.868 138.985 833.368 138.367 833.368C137.75 833.368 137.249 832.868 137.249 832.251Z" fill="white" fill-opacity="0.15"/>
<path d="M125.672 658.258C125.823 659.466 125.944 659.587 127.183 659.769C125.974 659.92 125.853 660.04 125.672 661.279C125.521 660.071 125.4 659.95 124.161 659.769C125.369 659.618 125.49 659.466 125.672 658.258Z" fill="white" fill-opacity="0.1"/>
<path d="M38.1466 801.171C38.2977 802.379 38.4186 802.5 39.6576 802.681C38.4488 802.832 38.3279 802.953 38.1466 804.191C37.9955 802.983 37.8747 802.862 36.6357 802.681C37.8444 802.53 37.9653 802.379 38.1466 801.171Z" fill="white" fill-opacity="0.1"/>
</svg>
